<svg id="svg" version="1.1" xmlns="http://www.w3.org/2000/svg" xmlns:xlink="http://www.w3.org/1999/xlink" width="400" height="400" viewBox="0, 0, 400,400"><g id="svgg"><path id="path0" d="M123.828 124.092 C 112.781 125.984,105.619 131.996,102.057 142.364 L 100.977 145.508 100.977 194.922 C 100.977 249.305,100.784 244.497,103.180 249.887 C 106.923 258.303,115.026 263.556,124.902 263.968 L 129.688 264.168 129.688 278.934 C 129.688 296.661,129.507 295.962,134.263 296.688 C 138.626 297.353,138.616 297.361,156.031 279.861 L 171.753 264.063 204.573 264.063 C 224.039 264.063,238.203 263.909,239.382 263.685 C 248.585 261.940,257.306 253.534,259.204 244.579 C 260.003 240.808,260.004 149.343,259.205 144.861 C 257.619 135.966,249.584 127.623,239.982 124.900 L 236.914 124.030 180.859 123.977 C 150.029 123.948,124.365 124.000,123.828 124.092 M302.842 151.551 C 296.878 152.968,295.301 158.500,299.494 163.298 C 319.423 186.104,319.553 218.715,299.821 245.215 C 296.331 249.904,296.071 251.737,298.504 254.508 C 302.385 258.928,306.075 258.513,310.285 253.182 C 327.259 231.691,332.145 201.483,322.614 176.953 C 318.575 166.557,310.234 153.619,306.467 151.909 C 304.735 151.122,304.674 151.116,302.842 151.551 M230.674 157.588 C 233.993 159.762,234.311 162.998,231.464 165.625 L 230.406 166.602 180.640 166.602 L 130.874 166.602 129.652 165.380 C 126.554 162.281,128.156 157.757,132.617 157.007 C 137.005 156.268,229.497 156.817,230.674 157.588 M283.777 167.949 C 279.020 169.878,277.726 175.741,281.218 179.551 C 294.765 194.336,294.688 213.644,281.021 229.273 C 277.637 233.142,278.559 236.871,283.576 239.601 C 288.005 242.012,290.396 240.589,295.965 232.227 C 308.142 213.944,306.737 187.227,292.790 171.875 C 289.261 167.990,286.569 166.817,283.777 167.949 M267.756 184.943 L 266.797 185.902 266.797 203.997 C 266.797 223.896,266.710 223.157,269.212 224.451 C 276.856 228.404,285.032 208.665,280.911 196.206 C 277.924 187.173,271.244 181.455,267.756 184.943 M218.892 188.820 C 223.282 190.654,222.616 196.430,217.918 197.260 C 216.979 197.426,197.108 197.539,173.759 197.511 L 131.307 197.461 130.204 196.642 C 127.188 194.402,127.630 190.341,131.055 188.829 C 132.828 188.046,217.020 188.038,218.892 188.820 M199.048 219.427 C 202.817 221.224,202.686 226.280,198.820 228.222 C 196.929 229.172,133.307 229.287,131.051 228.344 C 127.195 226.733,127.198 221.000,131.055 219.298 C 133.088 218.400,197.151 218.522,199.048 219.427 " stroke="none" fill="#050505" fill-rule="evenodd"></path><path id="path1" d="M0.000 200.000 L 0.000 400.000 200.000 400.000 L 400.000 400.000 400.000 200.000 L 400.000 0.000 200.000 0.000 L 0.000 0.000 0.000 200.000 M240.820 124.755 C 250.116 128.235,256.070 134.029,258.884 142.332 L 259.961 145.508 260.079 193.359 C 260.164 228.156,260.074 241.848,259.749 243.546 C 258.007 252.627,251.699 259.649,242.088 263.204 L 239.258 264.251 205.448 264.364 L 171.637 264.478 156.352 279.874 C 146.603 289.695,140.457 295.590,139.381 296.154 C 137.308 297.241,133.643 297.339,131.762 296.357 C 129.236 295.040,129.297 295.462,129.297 279.265 L 129.297 264.564 125.098 264.335 C 114.194 263.741,105.661 257.631,101.807 247.656 C 100.534 244.363,100.289 148.209,101.541 143.259 C 103.770 134.445,111.414 126.781,120.313 124.439 C 124.055 123.454,238.145 123.753,240.820 124.755 M307.036 151.760 C 308.993 152.772,314.250 159.856,318.049 166.602 C 331.814 191.044,330.747 222.287,315.318 246.523 C 308.050 257.941,304.199 260.117,299.219 255.618 C 295.987 252.698,295.903 249.479,298.964 245.860 C 301.339 243.052,305.117 236.956,307.413 232.227 C 317.636 211.176,316.436 188.600,304.109 170.047 C 301.192 165.657,301.076 165.500,299.328 163.585 C 293.764 157.487,299.901 148.071,307.036 151.760 M130.961 157.800 C 127.831 159.221,127.322 162.829,129.908 165.258 L 130.922 166.211 180.664 166.211 L 230.406 166.211 231.403 165.275 C 233.905 162.924,233.467 159.415,230.484 157.910 L 228.741 157.031 180.679 157.040 C 134.085 157.048,132.567 157.071,130.961 157.800 M288.616 167.977 C 290.567 168.862,292.944 171.262,295.765 175.195 C 308.867 193.459,307.216 220.392,291.906 238.125 C 289.018 241.471,286.535 241.842,282.850 239.477 C 277.765 236.214,277.365 233.143,281.399 228.320 C 294.690 212.429,294.313 194.138,280.385 179.027 C 275.647 173.887,282.214 165.072,288.616 167.977 M273.608 184.830 C 282.360 190.628,285.094 207.377,279.055 218.215 C 275.559 224.490,270.466 226.796,267.480 223.455 L 266.406 222.253 266.406 204.467 C 266.406 185.606,266.455 185.068,268.262 184.016 C 269.606 183.233,271.671 183.547,273.608 184.830 M129.785 190.004 C 127.832 191.794,127.780 193.976,129.646 195.842 L 130.874 197.070 174.431 197.173 C 222.326 197.286,219.608 197.417,220.892 194.935 C 221.880 193.024,221.652 191.496,220.156 190.000 L 218.828 188.672 175.033 188.672 L 131.239 188.672 129.785 190.004 M130.871 219.640 C 127.381 221.406,127.534 226.484,131.122 227.983 C 133.069 228.796,196.686 228.768,198.637 227.953 C 202.177 226.474,202.479 221.720,199.153 219.812 C 197.627 218.936,132.586 218.772,130.871 219.640 " stroke="none" fill="#fbfbfb" fill-rule="evenodd"></path><path id="path2" d="M251.758 131.641 C 252.597 132.500,253.371 133.203,253.479 133.203 C 253.586 133.203,252.988 132.500,252.148 131.641 C 251.309 130.781,250.535 130.078,250.427 130.078 C 250.320 130.078,250.919 130.781,251.758 131.641 M134.473 156.910 C 134.849 157.008,135.464 157.008,135.840 156.910 C 136.216 156.812,135.908 156.731,135.156 156.731 C 134.404 156.731,134.097 156.812,134.473 156.910 M138.194 156.927 C 139.113 157.010,140.519 157.009,141.319 156.925 C 142.119 156.841,141.367 156.773,139.648 156.775 C 137.930 156.776,137.275 156.845,138.194 156.927 M144.824 156.929 C 145.952 157.008,147.798 157.008,148.926 156.929 C 150.054 156.850,149.131 156.785,146.875 156.785 C 144.619 156.785,143.696 156.850,144.824 156.929 M169.990 156.933 C 180.447 156.991,197.674 156.991,208.271 156.934 C 218.868 156.876,210.313 156.828,189.258 156.828 C 168.203 156.828,159.533 156.876,169.990 156.933 M259.856 159.375 C 259.856 160.127,259.937 160.435,260.035 160.059 C 260.133 159.683,260.133 159.067,260.035 158.691 C 259.937 158.315,259.856 158.623,259.856 159.375 M259.856 164.844 C 259.856 165.596,259.937 165.903,260.035 165.527 C 260.133 165.151,260.133 164.536,260.035 164.160 C 259.937 163.784,259.856 164.092,259.856 164.844 M132.324 166.682 C 132.808 166.775,133.599 166.775,134.082 166.682 C 134.565 166.589,134.170 166.513,133.203 166.513 C 132.236 166.513,131.841 166.589,132.324 166.682 M139.347 166.688 C 140.040 166.774,141.271 166.776,142.081 166.691 C 142.892 166.607,142.324 166.536,140.820 166.534 C 139.316 166.533,138.653 166.602,139.347 166.688 M145.020 166.691 C 145.825 166.775,147.144 166.775,147.949 166.691 C 148.755 166.607,148.096 166.538,146.484 166.538 C 144.873 166.538,144.214 166.607,145.020 166.691 M153.418 166.689 C 154.116 166.775,155.259 166.775,155.957 166.689 C 156.655 166.602,156.084 166.531,154.688 166.531 C 153.291 166.531,152.720 166.602,153.418 166.689 M158.878 166.688 C 159.571 166.774,160.802 166.776,161.612 166.691 C 162.423 166.607,161.855 166.536,160.352 166.534 C 158.848 166.533,158.185 166.602,158.878 166.688 M163.770 166.676 C 164.146 166.774,164.761 166.774,165.137 166.676 C 165.513 166.577,165.205 166.497,164.453 166.497 C 163.701 166.497,163.394 166.577,163.770 166.676 M166.895 166.686 C 167.485 166.776,168.452 166.776,169.043 166.686 C 169.634 166.597,169.150 166.523,167.969 166.523 C 166.787 166.523,166.304 166.597,166.895 166.686 M182.719 166.683 C 183.205 166.776,183.908 166.772,184.282 166.675 C 184.655 166.577,184.258 166.500,183.398 166.505 C 182.539 166.509,182.233 166.589,182.719 166.683 M186.222 166.688 C 186.915 166.774,188.146 166.776,188.956 166.691 C 189.767 166.607,189.199 166.536,187.695 166.534 C 186.191 166.533,185.528 166.602,186.222 166.688 M197.189 166.698 C 199.402 166.768,202.918 166.767,205.001 166.697 C 207.085 166.627,205.273 166.570,200.977 166.570 C 196.680 166.571,194.975 166.628,197.189 166.698 M213.965 166.698 C 216.812 166.765,221.470 166.765,224.316 166.698 C 227.163 166.631,224.834 166.577,219.141 166.577 C 213.447 166.577,211.118 166.631,213.965 166.698 M259.891 169.531 C 259.891 170.928,259.962 171.499,260.048 170.801 C 260.135 170.103,260.135 168.960,260.048 168.262 C 259.962 167.563,259.891 168.135,259.891 169.531 M291.406 170.435 C 291.406 170.502,291.978 171.073,292.676 171.704 L 293.945 172.852 292.798 171.582 C 291.729 170.399,291.406 170.133,291.406 170.435 M280.452 179.004 C 282.071 180.729,282.422 181.039,282.422 180.745 C 282.422 180.683,281.587 179.848,280.566 178.890 L 278.711 177.148 280.452 179.004 M259.920 185.742 C 259.920 188.750,259.982 189.929,260.056 188.362 C 260.130 186.795,260.130 184.334,260.055 182.893 C 259.980 181.452,259.919 182.734,259.920 185.742 M266.586 204.102 C 266.586 213.770,266.637 217.669,266.699 212.766 C 266.761 207.864,266.761 199.954,266.699 195.188 C 266.637 190.423,266.586 194.434,266.586 204.102 M259.894 193.945 C 259.896 195.449,259.966 196.017,260.051 195.206 C 260.135 194.396,260.134 193.165,260.048 192.472 C 259.961 191.778,259.892 192.441,259.894 193.945 M303.997 197.656 C 303.997 198.408,304.077 198.716,304.176 198.340 C 304.274 197.964,304.274 197.349,304.176 196.973 C 304.077 196.597,303.997 196.904,303.997 197.656 M259.932 205.078 C 259.932 209.697,259.988 211.587,260.057 209.277 C 260.126 206.968,260.126 203.188,260.057 200.879 C 259.988 198.569,259.932 200.459,259.932 205.078 M133.301 197.535 C 133.677 197.633,134.292 197.633,134.668 197.535 C 135.044 197.437,134.736 197.356,133.984 197.356 C 133.232 197.356,132.925 197.437,133.301 197.535 M161.035 197.535 C 161.411 197.633,162.026 197.633,162.402 197.535 C 162.778 197.437,162.471 197.356,161.719 197.356 C 160.967 197.356,160.659 197.437,161.035 197.535 M166.504 197.535 C 166.880 197.633,167.495 197.633,167.871 197.535 C 168.247 197.437,167.939 197.356,167.188 197.356 C 166.436 197.356,166.128 197.437,166.504 197.535 M174.707 197.535 C 175.083 197.633,175.698 197.633,176.074 197.535 C 176.450 197.437,176.143 197.356,175.391 197.356 C 174.639 197.356,174.331 197.437,174.707 197.535 M177.441 197.535 C 177.817 197.633,178.433 197.633,178.809 197.535 C 179.185 197.437,178.877 197.356,178.125 197.356 C 177.373 197.356,177.065 197.437,177.441 197.535 M188.379 197.535 C 188.755 197.633,189.370 197.633,189.746 197.535 C 190.122 197.437,189.814 197.356,189.063 197.356 C 188.311 197.356,188.003 197.437,188.379 197.535 M202.832 197.535 C 203.208 197.633,203.823 197.633,204.199 197.535 C 204.575 197.437,204.268 197.356,203.516 197.356 C 202.764 197.356,202.456 197.437,202.832 197.535 M206.152 197.548 C 206.851 197.635,207.993 197.635,208.691 197.548 C 209.390 197.462,208.818 197.391,207.422 197.391 C 206.025 197.391,205.454 197.462,206.152 197.548 M210.645 197.535 C 211.021 197.633,211.636 197.633,212.012 197.535 C 212.388 197.437,212.080 197.356,211.328 197.356 C 210.576 197.356,210.269 197.437,210.645 197.535 M327.497 203.516 C 327.497 206.416,327.558 207.603,327.633 206.152 C 327.709 204.702,327.709 202.329,327.633 200.879 C 327.558 199.429,327.497 200.615,327.497 203.516 M304.441 203.906 C 304.441 206.162,304.506 207.085,304.585 205.957 C 304.664 204.829,304.664 202.983,304.585 201.855 C 304.506 200.728,304.441 201.650,304.441 203.906 M314.587 202.930 C 314.588 204.648,314.657 205.303,314.740 204.384 C 314.822 203.465,314.821 202.059,314.737 201.259 C 314.653 200.459,314.586 201.211,314.587 202.930 M303.997 210.156 C 303.997 210.908,304.077 211.216,304.176 210.840 C 304.274 210.464,304.274 209.849,304.176 209.473 C 304.077 209.097,303.997 209.404,303.997 210.156 M259.856 217.188 C 259.856 217.939,259.937 218.247,260.035 217.871 C 260.133 217.495,260.133 216.880,260.035 216.504 C 259.937 216.128,259.856 216.436,259.856 217.188 M259.856 223.047 C 259.856 223.799,259.937 224.106,260.035 223.730 C 260.133 223.354,260.133 222.739,260.035 222.363 C 259.937 221.987,259.856 222.295,259.856 223.047 M259.864 236.523 C 259.868 237.383,259.948 237.688,260.042 237.202 C 260.135 236.717,260.132 236.013,260.034 235.640 C 259.936 235.267,259.860 235.664,259.864 236.523 M124.902 264.349 C 125.815 264.431,127.310 264.431,128.223 264.349 C 129.136 264.266,128.389 264.199,126.563 264.199 C 124.736 264.199,123.989 264.266,124.902 264.349 M187.598 264.355 C 196.567 264.414,211.245 264.414,220.215 264.355 C 229.185 264.297,221.846 264.249,203.906 264.249 C 185.967 264.249,178.628 264.297,187.598 264.355 M168.139 267.676 L 166.992 268.945 168.262 267.798 C 169.445 266.729,169.711 266.406,169.409 266.406 C 169.342 266.406,168.771 266.978,168.139 267.676 M164.624 271.191 L 163.477 272.461 164.746 271.314 C 165.929 270.244,166.195 269.922,165.893 269.922 C 165.826 269.922,165.255 270.493,164.624 271.191 " stroke="none" fill="#7c7c7c" fill-rule="evenodd"></path><path id="path3" d="M259.856 152.344 C 259.856 153.096,259.937 153.403,260.035 153.027 C 260.133 152.651,260.133 152.036,260.035 151.660 C 259.937 151.284,259.856 151.592,259.856 152.344 M259.883 175.781 C 259.883 176.963,259.956 177.446,260.045 176.855 C 260.135 176.265,260.135 175.298,260.045 174.707 C 259.956 174.116,259.883 174.600,259.883 175.781 M133.878 188.563 C 134.571 188.649,135.802 188.651,136.612 188.566 C 137.423 188.482,136.855 188.411,135.352 188.409 C 133.848 188.408,133.185 188.477,133.878 188.563 M143.262 188.573 C 145.894 188.641,150.200 188.641,152.832 188.573 C 155.464 188.505,153.311 188.450,148.047 188.450 C 142.783 188.450,140.630 188.505,143.262 188.573 M158.878 188.563 C 159.571 188.649,160.802 188.651,161.612 188.566 C 162.423 188.482,161.855 188.411,160.352 188.409 C 158.848 188.408,158.185 188.477,158.878 188.563 M170.580 188.574 C 174.701 188.637,181.557 188.637,185.814 188.574 C 190.071 188.511,186.699 188.459,178.320 188.459 C 169.941 188.459,166.458 188.510,170.580 188.574 M194.238 188.551 C 194.614 188.649,195.229 188.649,195.605 188.551 C 195.981 188.452,195.674 188.372,194.922 188.372 C 194.170 188.372,193.862 188.452,194.238 188.551 M198.340 188.569 C 199.468 188.648,201.313 188.648,202.441 188.569 C 203.569 188.490,202.646 188.426,200.391 188.426 C 198.135 188.426,197.212 188.490,198.340 188.569 M205.376 188.558 C 205.862 188.651,206.565 188.647,206.938 188.550 C 207.312 188.452,206.914 188.375,206.055 188.380 C 205.195 188.384,204.890 188.464,205.376 188.558 M213.972 188.564 C 214.674 188.651,215.729 188.649,216.316 188.560 C 216.903 188.471,216.328 188.400,215.039 188.402 C 213.750 188.404,213.270 188.477,213.972 188.564 M148.730 228.808 C 157.378 228.867,171.528 228.867,180.176 228.808 C 188.823 228.750,181.748 228.702,164.453 228.702 C 147.158 228.702,140.083 228.750,148.730 228.808 M129.474 279.102 C 129.474 287.266,129.526 290.661,129.589 286.647 C 129.653 282.633,129.653 275.953,129.589 271.803 C 129.526 267.653,129.474 270.938,129.474 279.102 " stroke="none" fill="#848484" fill-rule="evenodd"></path><path id="path4" d="M307.422 152.075 C 307.422 152.143,307.993 152.714,308.691 153.345 L 309.961 154.492 308.814 153.223 C 307.744 152.039,307.422 151.774,307.422 152.075 M298.047 162.232 C 298.047 162.299,298.618 162.870,299.316 163.501 L 300.586 164.648 299.439 163.379 C 298.369 162.196,298.047 161.930,298.047 162.232 M274.609 185.669 C 274.609 185.736,275.181 186.308,275.879 186.939 L 277.148 188.086 276.001 186.816 C 274.932 185.633,274.609 185.367,274.609 185.669 M282.152 204.492 C 282.154 205.781,282.227 206.262,282.314 205.559 C 282.401 204.857,282.399 203.803,282.310 203.216 C 282.221 202.629,282.150 203.203,282.152 204.492 M291.106 203.516 C 291.106 204.268,291.187 204.575,291.285 204.199 C 291.383 203.823,291.383 203.208,291.285 202.832 C 291.187 202.456,291.106 202.764,291.106 203.516 M149.121 219.043 C 157.769 219.101,171.919 219.101,180.566 219.043 C 189.214 218.984,182.139 218.936,164.844 218.936 C 147.549 218.936,140.474 218.984,149.121 219.043 M134.863 297.144 C 135.239 297.243,135.854 297.243,136.230 297.144 C 136.606 297.046,136.299 296.966,135.547 296.966 C 134.795 296.966,134.487 297.046,134.863 297.144 " stroke="none" fill="#a1a1a1" fill-rule="evenodd"></path></g></svg>